<?xml version="1.0" encoding="utf-8"?>
<!-- Generator: Adobe Illustrator 27.0.0, SVG Export Plug-In . SVG Version: 6.00 Build 0)  -->
<svg version="1.2" baseProfile="tiny" id="Layer_1" xmlns="http://www.w3.org/2000/svg" xmlns:xlink="http://www.w3.org/1999/xlink"
	 x="0px" y="0px" viewBox="0 0 69.7 69.7" overflow="visible" xml:space="preserve">
<g>
	<linearGradient id="SVGID_1_" gradientUnits="userSpaceOnUse" x1="-4.547474e-12" y1="34.8599" x2="69.7197" y2="34.8599">
		<stop  offset="0" style="stop-color:#9C25FF"/>
		<stop  offset="1" style="stop-color:#2E3690"/>
	</linearGradient>
	<circle fill="url(#SVGID_1_)" cx="34.9" cy="34.9" r="34.9"/>
	<g>
		<path fill="none" stroke="#FFFFFF" stroke-width="0.909" stroke-miterlimit="10" d="M28.4,33V20c0-1.7,1.3-3,3-3h23
			c1.7,0,3,1.3,3,3v26c0,1.7-1.3,3-3,3h-25"/>
		<polyline fill="none" stroke="#FFFFFF" stroke-width="0.909" stroke-miterlimit="10" points="33.4,33 33.4,26 39.4,26 39.4,44 
			33.4,44 33.4,41 		"/>
		<rect x="39.4" y="33" fill="none" stroke="#FFFFFF" stroke-width="0.909" stroke-miterlimit="10" width="6" height="11"/>
		<rect x="45.4" y="22" fill="none" stroke="#FFFFFF" stroke-width="0.909" stroke-miterlimit="10" width="6" height="22"/>
		<path fill="none" stroke="#FFFFFF" stroke-width="0.909" stroke-miterlimit="10" d="M26.4,52.7V39h5c3,0,4-1.8,4-4
			c-1.6,0-16.2,0-18,0c-1.9,0-5,1.5-5,6v7c0,2.1,1.9,4,4,4"/>
		<line fill="none" stroke="#FFFFFF" stroke-width="0.909" stroke-miterlimit="10" x1="16.4" y1="41" x2="16.4" y2="52.7"/>
		<path fill="none" stroke="#FFFFFF" stroke-width="0.909" stroke-miterlimit="10" d="M24.4,29c0,1.7-1.3,3-3,3h-1c-1.7,0-3-1.3-3-3
			v-3c0-1.7,1.3-3,3-3h1c1.7,0,3,1.3,3,3V29z"/>
	</g>
</g>
</svg>
