<?xml version="1.0" encoding="utf-8"?>
<!-- Generator: Adobe Illustrator 27.0.0, SVG Export Plug-In . SVG Version: 6.00 Build 0)  -->
<svg version="1.2" baseProfile="tiny" id="Layer_1" xmlns="http://www.w3.org/2000/svg" xmlns:xlink="http://www.w3.org/1999/xlink"
	 x="0px" y="0px" viewBox="0 0 69.7 69.7" overflow="visible" xml:space="preserve">
<g>
	<linearGradient id="SVGID_1_" gradientUnits="userSpaceOnUse" x1="-5.456968e-12" y1="34.8599" x2="69.7197" y2="34.8599">
		<stop  offset="0" style="stop-color:#9C25FF"/>
		<stop  offset="1" style="stop-color:#2E3690"/>
	</linearGradient>
	<circle fill="url(#SVGID_1_)" cx="34.9" cy="34.9" r="34.9"/>
	<g>
		<path fill="#FFFFFF" d="M47.5,35.9c0-7-5.7-12.8-12.8-12.8s-12.8,5.7-12.8,12.8s5.7,12.8,12.8,12.8S47.5,43,47.5,35.9z M23.3,35.9
			c0-6.3,5.1-11.4,11.4-11.4s11.4,5.1,11.4,11.4S41,47.3,34.7,47.3C28.4,47.3,23.3,42.2,23.3,35.9z"/>
		<path fill="#FFFFFF" d="M35.4,43.8v-0.9c1.8-0.3,3.2-1.9,3.2-3.8c0-2.1-1.7-3.9-3.9-3.9c-1.4,0-2.5-1.1-2.5-2.4
			c0-1.4,1.1-2.5,2.5-2.5c1.4,0,2.5,1.1,2.5,2.5c0,0.4,0.3,0.7,0.7,0.7c0.4,0,0.7-0.3,0.7-0.7c0-1.9-1.4-3.5-3.2-3.8V28
			c0-0.4-0.3-0.7-0.7-0.7S34,27.7,34,28V29c-1.8,0.3-3.2,1.9-3.2,3.8c0,2.1,1.7,3.8,3.9,3.8c1.4,0,2.5,1.1,2.5,2.5
			c0,1.3-1.1,2.4-2.5,2.4c-1.4,0-2.5-1.1-2.5-2.4c0-0.4-0.3-0.7-0.7-0.7c-0.4,0-0.7,0.3-0.7,0.7c0,1.9,1.4,3.5,3.2,3.8v0.9
			c0,0.4,0.3,0.7,0.7,0.7S35.4,44.2,35.4,43.8z"/>
		<path fill="#FFFFFF" d="M53.4,42.6c-0.2-0.3-0.3-0.7-0.5-1c0.1,0,0.1,0,0.2,0.1c0.6-1.8,0.9-3.8,0.9-5.8
			c0-10.6-8.7-19.3-19.3-19.3c-0.3,0-0.5,0-0.7,0c0-0.2,0-0.4,0-0.6c-0.1-0.6-0.6-1.2-1.2-1.4l-6-2.7c-0.7-0.3-1.5-0.2-2.2,0.3
			c-0.6,0.5-0.9,1.3-0.7,2.1l0,0.1c-4.7,1.5-7.5,6.4-6.4,11.2c0.1,0.4,0.2,0.8,0.3,1.1c-1.5,2.7-2.4,5.9-2.4,9.2
			c0,10.6,8.7,19.3,19.3,19.3c1.5,0,3.1-0.2,4.5-0.5c0,0.3,0.1,0.5,0.2,0.8c0.3,0.6,0.8,1,1.5,1.2l6.5,1.3c0.1,0,0.3,0,0.4,0
			c0.6,0,1.2-0.3,1.6-0.8c0.5-0.6,0.6-1.5,0.3-2.2l-0.1-0.1C53.8,52.5,55.5,47.1,53.4,42.6z M24.8,15.5c0.4-0.1,0.6-0.5,0.5-0.8
			l-0.2-0.8c-0.1-0.4,0.1-0.6,0.2-0.7c0.1-0.1,0.3-0.2,0.4-0.2c0.1,0,0.2,0,0.3,0.1l6,2.7c0.2,0.1,0.3,0.3,0.4,0.5
			c0,0.2,0,0.4-0.1,0.6l-4.3,5c-0.2,0.2-0.4,0.3-0.7,0.2c-0.3-0.1-0.4-0.3-0.5-0.5L26.8,21c0-0.2-0.2-0.3-0.3-0.4
			c-0.2-0.1-0.3-0.1-0.5-0.1c-3.1,0.7-5.7,3-6.8,6c-0.1-0.4-0.3-0.8-0.4-1.2C17.8,20.9,20.5,16.6,24.8,15.5z M16.8,35.9
			c0-2.9,0.7-5.7,2-8.1c0.1,0,0.3,0.1,0.4,0.1c0,0,0,0,0,0c0.6,0,1.1-0.4,1.3-0.9c0.9-2.4,2.7-4.2,5.1-5c0.2,0.7,0.8,1.3,1.5,1.5
			c0.8,0.2,1.6-0.1,2.1-0.7l4.1-4.8c0.5,0,1-0.1,1.5-0.1c9.9,0,17.9,8,17.9,17.9c0,1.7-0.2,3.3-0.7,4.8c-0.2-0.1-0.5-0.1-0.7,0
			c-0.6,0.1-1,0.6-1.1,1.2c-0.3,2.5-1.8,4.7-3.9,5.9c-0.3-0.7-1-1.1-1.8-1.1c0,0,0,0-0.1,0c-0.8,0-1.5,0.4-1.8,1.1L39.7,53
			c-1.6,0.5-3.3,0.8-5,0.8C24.8,53.8,16.8,45.8,16.8,35.9z M48.3,54c-0.3,0.2-0.5,0.6-0.3,0.9l0.3,0.7c0.1,0.2,0.1,0.5-0.1,0.7
			c-0.1,0.1-0.3,0.3-0.7,0.2l-6.5-1.3c-0.2,0-0.4-0.2-0.5-0.4c-0.1-0.2-0.1-0.4,0-0.6l3.1-5.8c0.2-0.3,0.5-0.4,0.6-0.4c0,0,0,0,0,0
			c0.3,0,0.5,0.2,0.6,0.4l0.3,0.6c0.1,0.2,0.2,0.3,0.4,0.4c0.2,0.1,0.4,0.1,0.5,0c2.9-1.4,4.9-4.1,5.3-7.3c0.2,0.3,0.4,0.7,0.6,1.1
			C54,47.2,52.3,52.1,48.3,54z"/>
	</g>
</g>
</svg>
