<?xml version="1.0" encoding="utf-8"?>
<!-- Generator: Adobe Illustrator 27.0.0, SVG Export Plug-In . SVG Version: 6.00 Build 0)  -->
<svg version="1.2" baseProfile="tiny" id="Layer_1" xmlns="http://www.w3.org/2000/svg" xmlns:xlink="http://www.w3.org/1999/xlink"
	 x="0px" y="0px" viewBox="0 0 69.7 69.7" overflow="visible" xml:space="preserve">
<g>
	<linearGradient id="SVGID_1_" gradientUnits="userSpaceOnUse" x1="0" y1="34.8599" x2="69.7197" y2="34.8599">
		<stop  offset="0" style="stop-color:#9C25FF"/>
		<stop  offset="1" style="stop-color:#2E3690"/>
	</linearGradient>
	<circle fill="url(#SVGID_1_)" cx="34.9" cy="34.9" r="34.9"/>
	<g>
		<path fill="none" stroke="#FFFFFF" stroke-width="0.909" stroke-miterlimit="10" d="M40.2,14.6l-1.5,10.9c0.7,0.3,1.4,0.6,2,1.1
			l8.1-7.4C46.3,17,43.4,15.4,40.2,14.6z"/>
		<path fill="none" stroke="#FFFFFF" stroke-width="0.909" stroke-miterlimit="10" d="M51.9,22.7l-8.1,7.5c0.7,1.4,1.2,3,1.2,4.7
			c0,3-1.3,5.8-3.5,7.6l5.2,9.7c5.5-3.8,9.2-10.1,9.2-17.3C55.9,30.3,54.4,26.1,51.9,22.7z"/>
		<path fill="none" stroke="#FFFFFF" stroke-width="0.909" stroke-miterlimit="10" d="M29.1,26.5c1.4-0.9,3-1.6,4.7-1.7l1.5-10.9
			c-0.2,0-0.3,0-0.5,0c-5.3,0-10.1,2-13.8,5.2L29.1,26.5z"/>
		<path fill="none" stroke="#FFFFFF" stroke-width="0.909" stroke-miterlimit="10" d="M37.2,44.7c-0.8,0.2-1.5,0.3-2.4,0.3
			c-5.6,0-10.1-4.5-10.1-10.1c0-1.7,0.4-3.3,1.2-4.7l-8.1-7.5c-2.5,3.4-3.9,7.6-3.9,12.2c0,11.6,9.4,21,21,21c2.7,0,5.2-0.5,7.5-1.4
			L37.2,44.7z"/>
	</g>
</g>
</svg>
